<svg version="1.2" xmlns="http://www.w3.org/2000/svg" viewBox="0 0 560 48" width="560" height="48"><style>.a{fill:#bdbdbd}.b{fill:#9f9f9f}.c{fill:#838383}.d{fill:#003cff}</style><path class="a" d="m151.8 37v-35.8h6.6l15.8 29.9v-29.9h4.8v35.8h-6.6l-15.9-30v30z"/><path class="b" d="m207.4 23.8l-6.6-17.9-6.6 17.9zm-23 13.2l13.7-35.8h5.5l13.6 35.8h-5l-3.3-9.2h-16.1l-3.3 9.2z"/><path class="c" d="m221.8 37v-35.8h4.9v14.6h17.6v-14.6h4.8v35.8h-4.8v-17.1h-17.6v17.1z"/><path class="d" d="m280.3 2.3v4.8q-2.7-1.4-5.2-2-2.4-0.7-4.7-0.7-4 0-6.1 1.6-2.2 1.5-2.2 4.4 0 2.3 1.4 3.6 1.5 1.2 5.5 1.9l2.9 0.6q5.4 1 8 3.6 2.6 2.6 2.6 7 0 5.2-3.5 7.9-3.5 2.7-10.3 2.7-2.5 0-5.4-0.6-2.8-0.6-5.9-1.7v-5q2.9 1.7 5.8 2.5 2.8 0.9 5.5 0.9 4.2 0 6.5-1.7 2.2-1.6 2.2-4.6 0-2.7-1.6-4.2-1.6-1.4-5.3-2.2l-3-0.6q-5.4-1-7.8-3.4-2.5-2.3-2.5-6.4 0-4.7 3.4-7.5 3.3-2.7 9.2-2.7 2.5 0 5.2 0.5 2.6 0.4 5.3 1.3zm33.3 7.8l-11.8 29.4q-1.9 4.8-3.6 6.3-1.8 1.4-4.8 1.4h-3.5v-3.7h2.6q1.8 0 2.8-0.8 1-0.9 2.2-4.1l0.8-2-10.8-26.5h4.6l8.4 21 8.5-21zm28.3 10.7v16.2h-4.4v-16.1q0-3.8-1.5-5.7-1.5-1.9-4.5-1.9-3.5 0-5.6 2.3-2.1 2.3-2.1 6.2v15.2h-4.4v-26.9h4.4v4.2q1.6-2.4 3.7-3.6 2.2-1.2 5-1.2 4.6 0 7 2.8 2.4 2.9 2.4 8.5zm8.6-18.3h4.4v7.6h9.1v3.4h-9.1v14.6q0 3.3 0.9 4.3 0.9 0.9 3.7 0.9h4.5v3.7h-4.5q-5.1 0-7.1-1.9-1.9-1.9-1.9-7v-14.6h-3.3v-3.4h3.3zm41.4 18.3v16.2h-4.4v-16.1q0-3.8-1.5-5.7-1.5-1.9-4.5-1.9-3.5 0-5.6 2.3-2.1 2.3-2.1 6.2v15.2h-4.4v-37.3h4.4v14.6q1.6-2.4 3.7-3.6 2.2-1.2 5-1.2 4.6 0 7 2.9 2.4 2.8 2.4 8.4z"/><path fill-rule="evenodd" class="d" d="m-10 18.5l142-1z"/><path fill-rule="evenodd" class="d" d="m-42-83l100 100z"/><path fill-rule="evenodd" class="d" d="m11.5-33.5l49 104.5z"/><path fill-rule="evenodd" class="d" d="m-6 21l133.5-2z"/><path fill-rule="evenodd" class="d" d="m-18 31"/><path fill-rule="evenodd" class="d" d="m-8 10.5c124 19.5 149.5 60 122.5 5.5"/><path fill-rule="evenodd" class="d" d="m562 38c-132.2-20.8-159.4-64-130.6-5.9"/></svg>