<svg version="1.2" xmlns="http://www.w3.org/2000/svg" viewBox="0 0 240 240" width="240" height="240"><style>.a{fill:#c000ff}.b{fill:#ff00de}.c{fill:#42a8ff}.d{fill:#888}.e{fill:#b5b5b5}.f{fill:#fff}.g{fill:#003cff}</style><path fill-rule="evenodd" class="a" d="m262-24v295h-280v-295z"/><path fill-rule="evenodd" class="b" d="m197.5-48.8l-87.6 367.9-65.2-372.5z"/><path fill-rule="evenodd" class="c" d="m-38.7-59.5l508 209.6-549.4 13.4z"/><path class="d" d="m54.8 124.2l8.8-68.7 9.3 1.2-3.6 28.1 33.8 4.4 3.6-28.2 9.3 1.2-8.8 68.7-9.3-1.2 4.2-32.7-33.8-4.3-4.2 32.7z"/><path class="e" d="m73.2 67.4l-12.7-34.4-12.7 34.4zm-44.5 25.6l26.4-69.3h10.6l26.4 69.3h-9.7l-6.3-17.8h-31.2l-6.3 17.8z"/><path class="f" d="m5.4 52.5l8.7-68.7 12.5 1.5 23.2 61.4 7.3-57.5 9 1.2-8.7 68.7-12.5-1.6-23.2-61.4-7.3 57.5z"/><path class="g" d="m33.8 85v9.2q-5.3-2.6-10-3.8-4.8-1.3-9.2-1.3-7.6 0-11.8 3-4.1 2.9-4.1 8.4 0 4.6 2.7 7 2.8 2.3 10.5 3.7l5.7 1.2q10.4 2 15.4 7 5 5 5 13.5 0 10.1-6.8 15.2-6.7 5.2-19.7 5.2-4.9 0-10.5-1.1-5.5-1.1-11.5-3.3v-9.6q5.7 3.2 11.2 4.8 5.5 1.6 10.8 1.6 8 0 12.4-3.1 4.3-3.2 4.3-9 0-5.1-3.1-8-3.1-2.9-10.3-4.3l-5.7-1.1q-10.5-2.1-15.2-6.6-4.6-4.4-4.6-12.3 0-9.2 6.4-14.5 6.5-5.3 17.9-5.3 4.8 0 9.9 0.9 5.1 0.9 10.3 2.6zm62.6 15l-22.8 56.8q-3.6 9.3-7.1 12.1-3.4 2.9-9.2 2.9h-6.8v-7.2h5q3.5 0 5.5-1.7 1.9-1.6 4.3-7.8l1.5-3.9-21-51.2h9.1l16.2 40.7 16.2-40.7zm55.8 20.6v31.4h-8.5v-31.1q0-7.4-2.9-11-2.9-3.7-8.6-3.7-7 0-10.9 4.4-4 4.4-4 12v29.4h-8.6v-52h8.6v8.1q3-4.7 7.2-7 4.1-2.3 9.6-2.3 8.9 0 13.5 5.6 4.6 5.5 4.6 16.2zm16.7-35.3h8.5v14.7h17.6v6.7h-17.6v28.2q0 6.3 1.8 8.1 1.7 1.9 7.1 1.9h8.7v7.1h-8.7q-9.9 0-13.7-3.7-3.7-3.7-3.7-13.4v-28.2h-6.3v-6.7h6.3zm80.3 35.4v31.4h-8.5v-31.1q0-7.4-2.9-11.1-2.9-3.6-8.6-3.6-7 0-10.9 4.4-4 4.4-4 12v29.4h-8.6v-72.2h8.6v28.3q3-4.7 7.2-7 4.1-2.4 9.6-2.4 8.9 0 13.5 5.6 4.6 5.5 4.6 16.3z"/><path fill-rule="evenodd" class="c" d="m-197.8 46.9l41.6 15.6-41.6 15.6z"/></svg>